<svg width="124" height="32" viewBox="0 0 124 32" fill="none" xmlns="http://www.w3.org/2000/svg">
<path d="M34.8054 13.3327V3.79956H36.7195L41.0679 10.1178V3.79956H43.0005V13.3327H41.2723L36.7381 6.77285V13.3327H34.8054Z" fill="white"/>
<path d="M47.3192 13.4649C46.6502 13.4649 46.0555 13.3163 45.5352 13.0375C45.0149 12.7588 44.6246 12.35 44.3459 11.8296C44.0671 11.3093 43.9185 10.6961 43.9185 9.9899C43.9185 9.30233 44.0485 8.68909 44.3087 8.15018C44.5689 7.61128 44.9405 7.16528 45.4423 6.84937C45.9254 6.53346 46.5387 6.36621 47.2262 6.36621C47.9138 6.36621 48.5085 6.51488 48.973 6.8122C49.4376 7.10953 49.7907 7.51836 50.0323 8.03869C50.2739 8.55901 50.4039 9.15367 50.4039 9.84124V10.3616H45.8139C45.8139 10.7146 45.8697 11.012 45.9812 11.2721C46.0927 11.5323 46.2599 11.7181 46.4829 11.8668C46.7059 11.9969 46.9661 12.0712 47.2634 12.0712C47.5979 12.0712 47.8766 11.9969 48.1182 11.8668C48.3598 11.7181 48.5271 11.4951 48.6386 11.1792H50.3854C50.311 11.6624 50.1066 12.0712 49.8093 12.4243C49.4934 12.7588 49.1217 13.0375 48.6943 13.2048C48.2483 13.372 47.7837 13.4649 47.3192 13.4649ZM45.8139 9.228H48.6014C48.6014 8.94925 48.5456 8.70768 48.4527 8.48468C48.3412 8.26168 48.1926 8.07585 47.9881 7.94577C47.7837 7.81569 47.5236 7.74136 47.2262 7.74136C46.9289 7.74136 46.6873 7.81569 46.4643 7.96435C46.2599 8.11302 46.0927 8.29885 45.9812 8.52184C45.8511 8.72626 45.7953 8.96784 45.8139 9.228Z" fill="white"/>
<path d="M52.6494 13.3363L50.438 6.51636H52.1476L53.4484 10.7347H53.4856L54.7307 6.51636H56.1058L57.3695 10.7347H57.4252L58.6889 6.51636H60.4357L58.1871 13.3363H56.6819L55.4182 9.2109L54.1546 13.3363H52.6494Z" fill="white"/>
<path d="M64.1326 13.4109C63.5379 13.4109 63.0734 13.3366 62.7389 13.1879C62.4044 13.0392 62.1814 12.8162 62.0513 12.5375C61.9212 12.2587 61.8655 11.9428 61.8655 11.5712V7.85455H60.7505V6.51658H61.9212L62.4044 4.45386H63.7795V6.49799H65.3033V7.83597H63.7795L63.7981 11.4782C63.7981 11.6455 63.8167 11.7756 63.8539 11.8499C63.891 11.9242 63.9654 11.98 64.0583 12.0172C64.1512 12.0357 64.2627 12.0543 64.4114 12.0543H65.3219V13.2436C65.229 13.2808 65.0989 13.318 64.9131 13.3551C64.7273 13.3923 64.4671 13.4109 64.1326 13.4109Z" fill="white"/>
<path d="M68.9157 13.4688C68.2467 13.4688 67.6706 13.3201 67.1689 13.0414C66.6671 12.7626 66.2955 12.3538 66.0167 11.8335C65.738 11.3131 65.6079 10.6813 65.6079 9.97517C65.6079 9.25043 65.738 8.63719 66.0167 8.09828C66.2955 7.55937 66.6671 7.15055 67.1689 6.85322C67.6706 6.55589 68.2467 6.40723 68.9157 6.40723C69.5847 6.40723 70.1793 6.55589 70.6625 6.85322C71.1457 7.15055 71.5359 7.55937 71.7961 8.09828C72.0562 8.63719 72.2049 9.26901 72.2049 9.99375C72.2049 10.6813 72.0748 11.2946 71.8146 11.8149C71.5545 12.3352 71.1828 12.744 70.6811 13.06C70.2165 13.3201 69.6218 13.4688 68.9157 13.4688ZM68.9343 12.0379C69.2688 12.0379 69.5475 11.945 69.7519 11.7406C69.9563 11.5361 70.105 11.276 70.1979 10.9601C70.2908 10.6442 70.328 10.2911 70.328 9.90084C70.328 9.54776 70.2908 9.19468 70.1979 8.87877C70.105 8.56286 69.9749 8.3027 69.7705 8.09828C69.5661 7.89387 69.2874 7.80095 68.9343 7.80095C68.5998 7.80095 68.321 7.89387 68.1166 8.0797C67.9122 8.26553 67.7635 8.52569 67.652 8.8416C67.5591 9.15752 67.5034 9.51059 67.5034 9.90084C67.5034 10.2539 67.5405 10.607 67.6335 10.9229C67.7264 11.2574 67.875 11.5176 68.0795 11.722C68.2839 11.945 68.5626 12.0379 68.9343 12.0379Z" fill="white"/>
<path d="M72.9946 13.3337V6.51376H74.8901V7.48008C75.0016 7.31283 75.1317 7.14558 75.2989 6.99692C75.4662 6.84825 75.6892 6.71817 75.9493 6.60667C76.2095 6.51376 76.5254 6.45801 76.8785 6.45801C77.2873 6.45801 77.6776 6.53234 78.0492 6.69959C78.4209 6.86683 78.6996 7.127 78.9226 7.46149C79.1456 7.81457 79.2571 8.26056 79.2571 8.83664V13.3337H77.3245V9.07822C77.3245 8.70656 77.213 8.42781 76.99 8.24198C76.767 8.05615 76.5068 7.96324 76.1909 7.96324C75.9865 7.96324 75.7821 8.0004 75.5777 8.07473C75.3733 8.14907 75.2246 8.26056 75.0945 8.40923C74.9644 8.55789 74.9087 8.74372 74.9087 8.96672V13.3337H72.9946Z" fill="white"/>
<path d="M86.5583 13.4691C86.0752 13.4691 85.6106 13.4133 85.1646 13.2832C84.7186 13.1717 84.2912 12.9859 83.9196 12.7443C83.5479 12.5028 83.232 12.2054 82.9904 11.8524C82.7488 11.4993 82.6002 11.0719 82.563 10.6073H84.5514C84.6257 10.9046 84.7372 11.1462 84.923 11.332C85.1089 11.5364 85.3504 11.6851 85.6478 11.778C85.9451 11.8895 86.2796 11.9453 86.6698 11.9453C86.9672 11.9453 87.2645 11.9081 87.5247 11.8152C87.8034 11.7223 88.0264 11.5922 88.1937 11.4064C88.3609 11.2205 88.4538 10.9975 88.4538 10.7188C88.4538 10.3843 88.3423 10.1427 88.1007 9.97546C87.8592 9.80822 87.5432 9.67813 87.1344 9.58522L85.3504 9.19497C84.8487 9.08348 84.4027 8.93481 84.0311 8.71182C83.6594 8.48882 83.3621 8.19149 83.1576 7.83841C82.9532 7.48533 82.8603 7.03934 82.8603 6.5376C82.8603 5.94294 83.0276 5.42262 83.3435 4.99521C83.678 4.5678 84.124 4.2333 84.6815 4.0103C85.239 3.78731 85.8894 3.65723 86.5769 3.65723C87.376 3.65723 88.045 3.78731 88.5839 4.04747C89.1228 4.30763 89.5502 4.66071 89.8475 5.08812C90.1449 5.53411 90.2935 6.01727 90.2935 6.55618H88.3609C88.3237 6.22169 88.2308 5.96152 88.0636 5.75711C87.8963 5.5527 87.6733 5.40403 87.4132 5.3297C87.153 5.23679 86.8557 5.19962 86.5212 5.19962C85.9451 5.19962 85.5177 5.31112 85.2575 5.5527C84.9974 5.79428 84.8673 6.05444 84.8673 6.37035C84.8673 6.66768 84.9602 6.89068 85.1646 7.07651C85.369 7.26234 85.6849 7.39242 86.1309 7.48533L87.7848 7.83841C88.3981 7.94991 88.8998 8.15432 89.2901 8.3959C89.6803 8.65607 89.959 8.97198 90.1263 9.32506C90.2935 9.69672 90.3865 10.1055 90.3865 10.5515C90.3865 11.1276 90.2192 11.6294 89.9033 12.0753C89.5688 12.5213 89.1228 12.8558 88.5467 13.0974C87.9707 13.3576 87.3017 13.4691 86.5583 13.4691Z" fill="white"/>
<path d="M94.2309 13.4659C93.599 13.4659 93.0415 13.3172 92.5398 13.0385C92.0381 12.7597 91.6478 12.3509 91.3691 11.8306C91.0903 11.3102 90.9417 10.6784 90.9417 9.95369C90.9417 9.24753 91.0717 8.63429 91.3505 8.09538C91.6292 7.55647 92.0009 7.14765 92.5026 6.83173C93.0044 6.53441 93.5804 6.38574 94.2309 6.38574C94.8069 6.38574 95.2901 6.49724 95.7175 6.73882C96.1263 6.9804 96.4608 7.27773 96.7024 7.68656C96.944 8.0768 97.0741 8.52279 97.1112 9.00595H95.5131C95.4759 8.82012 95.4202 8.65287 95.3273 8.46704C95.2343 8.28121 95.0857 8.13255 94.9184 8.02105C94.7512 7.90955 94.5282 7.8538 94.268 7.8538C93.822 7.8538 93.4504 8.02105 93.1716 8.37413C92.8929 8.72721 92.7442 9.24753 92.7442 9.95369C92.7442 10.6227 92.8743 11.143 93.153 11.5332C93.4318 11.9235 93.8034 12.1093 94.2866 12.1093C94.5468 12.1093 94.7698 12.0536 94.937 11.9235C95.1043 11.7934 95.2529 11.6447 95.3458 11.4589C95.4387 11.2731 95.5131 11.1058 95.5317 10.9572H97.0926C97.0555 11.4217 96.9254 11.8492 96.6838 12.2394C96.4422 12.6111 96.1077 12.927 95.6989 13.15C95.2715 13.3544 94.7883 13.4659 94.2309 13.4659Z" fill="white"/>
<path d="M97.9204 13.3362V3.54297H99.8345V7.50116C99.946 7.33391 100.076 7.18525 100.243 7.03658C100.411 6.88792 100.615 6.75784 100.875 6.64634C101.135 6.53484 101.433 6.47909 101.786 6.47909C102.213 6.47909 102.622 6.57201 102.975 6.73925C103.328 6.9065 103.625 7.14808 103.83 7.48257C104.053 7.79849 104.164 8.18873 104.164 8.65331V13.3548H102.232V8.93205C102.232 8.61614 102.12 8.39314 101.897 8.2259C101.674 8.05865 101.414 7.98432 101.098 7.98432C100.894 7.98432 100.689 8.02148 100.503 8.09582C100.318 8.17015 100.15 8.28165 100.039 8.43031C99.9088 8.57897 99.853 8.76481 99.853 8.9878V13.3362H97.9204Z" fill="white"/>
<path d="M108.177 13.4688C107.508 13.4688 106.932 13.3201 106.431 13.0414C105.929 12.7626 105.557 12.3538 105.278 11.8335C105 11.3131 104.87 10.6813 104.87 9.97517C104.87 9.25043 105 8.63719 105.278 8.09828C105.557 7.55937 105.929 7.15055 106.431 6.85322C106.932 6.55589 107.508 6.40723 108.177 6.40723C108.846 6.40723 109.441 6.55589 109.924 6.85322C110.407 7.15055 110.798 7.55937 111.058 8.09828C111.318 8.63719 111.467 9.26901 111.467 9.99375C111.467 10.6813 111.337 11.2946 111.076 11.8149C110.816 12.3352 110.445 12.744 109.943 13.06C109.478 13.3201 108.884 13.4688 108.177 13.4688ZM108.196 12.0379C108.53 12.0379 108.809 11.945 109.014 11.7406C109.218 11.5361 109.367 11.276 109.46 10.9601C109.553 10.6442 109.59 10.2911 109.59 9.90084C109.59 9.54776 109.553 9.19468 109.46 8.87877C109.367 8.56286 109.237 8.3027 109.032 8.09828C108.828 7.89387 108.549 7.80095 108.196 7.80095C107.862 7.80095 107.583 7.89387 107.378 8.0797C107.174 8.26553 107.025 8.52569 106.914 8.8416C106.821 9.15752 106.765 9.51059 106.765 9.90084C106.765 10.2539 106.802 10.607 106.895 10.9229C106.988 11.2574 107.137 11.5176 107.341 11.722C107.546 11.945 107.824 12.0379 108.196 12.0379Z" fill="white"/>
<path d="M115.236 13.4688C114.567 13.4688 113.991 13.3201 113.489 13.0414C112.987 12.7626 112.616 12.3538 112.337 11.8335C112.058 11.3131 111.928 10.6813 111.928 9.97517C111.928 9.25043 112.058 8.63719 112.337 8.09828C112.616 7.55937 112.987 7.15055 113.489 6.85322C113.991 6.55589 114.567 6.40723 115.236 6.40723C115.905 6.40723 116.5 6.55589 116.983 6.85322C117.466 7.15055 117.856 7.55937 118.116 8.09828C118.377 8.63719 118.525 9.26901 118.525 9.99375C118.525 10.6813 118.395 11.2946 118.135 11.8149C117.875 12.3352 117.503 12.744 117.001 13.06C116.537 13.3201 115.942 13.4688 115.236 13.4688ZM115.255 12.0379C115.589 12.0379 115.868 11.945 116.072 11.7406C116.277 11.5361 116.425 11.276 116.518 10.9601C116.611 10.6442 116.648 10.2911 116.648 9.90084C116.648 9.54776 116.611 9.19468 116.518 8.87877C116.425 8.56286 116.295 8.3027 116.091 8.09828C115.886 7.89387 115.608 7.80095 115.255 7.80095C114.92 7.80095 114.641 7.89387 114.437 8.0797C114.233 8.26553 114.084 8.52569 113.972 8.8416C113.879 9.15752 113.824 9.51059 113.824 9.90084C113.824 10.2539 113.861 10.607 113.954 10.9229C114.047 11.2574 114.195 11.5176 114.4 11.722C114.604 11.945 114.883 12.0379 115.255 12.0379Z" fill="white"/>
<path d="M121.493 13.4477C120.991 13.4477 120.601 13.392 120.304 13.2619C120.006 13.1318 119.783 12.9832 119.653 12.7973C119.505 12.5929 119.43 12.3885 119.375 12.1469C119.319 11.9053 119.319 11.6638 119.319 11.4222V3.54297H121.196V11.1992C121.196 11.4408 121.251 11.6452 121.363 11.8124C121.474 11.9611 121.679 12.0726 121.976 12.0912L122.292 12.1098V13.2991C122.162 13.3362 122.032 13.3734 121.883 13.4106C121.772 13.4477 121.642 13.4477 121.493 13.4477Z" fill="white"/>
<path d="M37.5426 26.211C36.8737 26.211 36.2976 26.0623 35.7958 25.7836C35.2941 25.5048 34.9224 25.096 34.6437 24.5757C34.3649 24.0553 34.2349 23.4235 34.2349 22.7174C34.2349 21.9926 34.3649 21.3794 34.6437 20.8405C34.9224 20.3016 35.2941 19.8927 35.7958 19.5954C36.2976 19.2981 36.8737 19.1494 37.5426 19.1494C38.2116 19.1494 38.8063 19.2981 39.2895 19.5954C39.7726 19.8927 40.1629 20.3016 40.423 20.8405C40.6832 21.3794 40.8318 22.0112 40.8318 22.7359C40.8318 23.4235 40.7018 24.0368 40.4416 24.5571C40.1814 25.0774 39.8098 25.4862 39.308 25.8021C38.8435 26.0623 38.2488 26.211 37.5426 26.211ZM37.5612 24.7801C37.8957 24.7801 38.1745 24.6872 38.3789 24.4827C38.5833 24.2783 38.732 24.0182 38.8249 23.7023C38.9178 23.3863 38.955 23.0333 38.955 22.643C38.955 22.2899 38.9178 21.9369 38.8249 21.621C38.732 21.305 38.6019 21.0449 38.3975 20.8405C38.1931 20.6361 37.9143 20.5431 37.5612 20.5431C37.2267 20.5431 36.948 20.6361 36.7436 20.8219C36.5392 21.0077 36.3905 21.2679 36.279 21.5838C36.1861 21.8997 36.1303 22.2528 36.1303 22.643C36.1303 22.9961 36.1675 23.3492 36.2604 23.6651C36.3533 23.9996 36.502 24.2597 36.7064 24.4642C36.9108 24.6872 37.1896 24.7801 37.5612 24.7801Z" fill="white"/>
<path d="M42.2016 26.0817V20.5997H40.938V19.2617H42.2016V18.2768C42.2016 17.7193 42.3689 17.2919 42.6848 16.9946C43.0193 16.6972 43.4653 16.5486 44.0599 16.5486H45.6209L45.6395 17.8308H44.7289C44.4873 17.8308 44.3201 17.8866 44.2272 18.0166C44.1343 18.1467 44.0971 18.3326 44.0971 18.6113V19.2617H45.5652V20.5997H44.1343V26.0817H42.2016Z" fill="white"/>
<path d="M50.9102 26.0819V18.2585H48.0298V16.5488H55.6674V18.2585H52.8428V26.0819H50.9102Z" fill="white"/>
<path d="M58.3192 26.211C57.6502 26.211 57.0555 26.0624 56.5352 25.7836C56.0149 25.5049 55.6246 25.096 55.3459 24.5757C55.0671 24.0554 54.9185 23.4422 54.9185 22.736C54.9185 22.0484 55.0485 21.4352 55.3087 20.8963C55.5689 20.3574 55.9405 19.9114 56.4423 19.5955C56.9254 19.2796 57.5387 19.1123 58.2262 19.1123C58.9138 19.1123 59.5085 19.261 59.973 19.5583C60.4376 19.8556 60.7907 20.2645 61.0323 20.7848C61.2739 21.3051 61.4039 21.8998 61.4039 22.5873V23.1077H56.8139C56.8139 23.4607 56.8697 23.7581 56.9812 24.0182C57.0927 24.2784 57.2599 24.4642 57.4829 24.6129C57.7059 24.743 57.9661 24.8173 58.2634 24.8173C58.5979 24.8173 58.8766 24.743 59.1182 24.6129C59.3598 24.4642 59.5271 24.2412 59.6385 23.9253H61.3854C61.311 24.4085 61.1066 24.8173 60.8093 25.1704C60.4934 25.5049 60.1217 25.7836 59.6943 25.9509C59.2483 26.1181 58.8023 26.211 58.3192 26.211ZM56.8139 21.9741H59.6014C59.6014 21.6953 59.5456 21.4538 59.4527 21.2308C59.3412 21.0078 59.1926 20.8219 58.9881 20.6919C58.7837 20.5618 58.5236 20.4875 58.2262 20.4875C57.9289 20.4875 57.6873 20.5618 57.4643 20.7104C57.2599 20.8591 57.0927 21.0449 56.9812 21.2679C56.8697 21.4724 56.8139 21.7139 56.8139 21.9741Z" fill="white"/>
<path d="M65.2272 26.2159C64.5954 26.2159 64.0379 26.0672 63.5361 25.7885C63.0344 25.5097 62.6441 25.1009 62.3654 24.5806C62.0867 24.0602 61.938 23.4284 61.938 22.7037C61.938 21.9975 62.0681 21.3843 62.3468 20.8454C62.6256 20.3065 62.9972 19.8976 63.499 19.5817C64.0007 19.2844 64.5768 19.1357 65.2272 19.1357C65.8033 19.1357 66.2864 19.2472 66.7138 19.4888C67.1227 19.7304 67.4572 20.0277 67.6987 20.4366C67.9403 20.8268 68.0704 21.2728 68.1076 21.756H66.5094C66.4723 21.5701 66.4165 21.4029 66.3236 21.217C66.2307 21.0312 66.082 20.8825 65.9148 20.7711C65.7475 20.6596 65.5245 20.6038 65.2644 20.6038C64.8184 20.6038 64.4467 20.771 64.168 21.1241C63.8892 21.4772 63.7405 21.9975 63.7405 22.7037C63.7405 23.3727 63.8706 23.893 64.1494 24.2832C64.4281 24.6735 64.7998 24.8593 65.2829 24.8593C65.5431 24.8593 65.7661 24.8036 65.9333 24.6735C66.1006 24.5434 66.2493 24.3947 66.3422 24.2089C66.4351 24.0231 66.5094 23.8558 66.528 23.7072H68.089C68.0518 24.1717 67.9217 24.5992 67.6802 24.9894C67.4386 25.3611 67.1041 25.677 66.6952 25.9C66.2678 26.1044 65.7847 26.2159 65.2272 26.2159Z" fill="white"/>
<path d="M68.9146 26.0853V16.292H70.8286V20.2502C70.9401 20.0829 71.0702 19.9343 71.2374 19.7856C71.4047 19.6369 71.6091 19.5069 71.8693 19.3954C72.1294 19.2839 72.4267 19.2281 72.7798 19.2281C73.2072 19.2281 73.6161 19.321 73.9691 19.4883C74.3222 19.6555 74.6195 19.8971 74.824 20.2316C75.047 20.5475 75.1585 20.9378 75.1585 21.4023V26.1038H73.2258V21.6997C73.2258 21.3837 73.1143 21.1608 72.8913 20.9935C72.6683 20.8263 72.4082 20.7519 72.0923 20.7519C71.8878 20.7519 71.6834 20.7891 71.4976 20.8634C71.3118 20.9378 71.1445 21.0493 71.033 21.1979C70.9029 21.3466 70.8472 21.5324 70.8472 21.7554V26.1038H68.9146V26.0853Z" fill="white"/>
<path d="M76.1897 26.0815V19.2616H78.0852V20.2279C78.1967 20.0606 78.3267 19.8934 78.494 19.7447C78.6612 19.5961 78.8842 19.466 79.1444 19.3545C79.4046 19.2616 79.7205 19.2058 80.0736 19.2058C80.4824 19.2058 80.8726 19.2801 81.2443 19.4474C81.6159 19.6146 81.8947 19.8748 82.1177 20.2093C82.3407 20.5624 82.4522 21.0084 82.4522 21.5844V26.0815H80.5195V21.826C80.5195 21.4544 80.408 21.1756 80.1851 20.9898C79.9621 20.804 79.7019 20.711 79.386 20.711C79.1816 20.711 78.9772 20.7482 78.7727 20.8225C78.5683 20.8969 78.4197 21.0084 78.2896 21.157C78.1595 21.3057 78.1037 21.4915 78.1037 21.7145V26.0815H76.1897Z" fill="white"/>
<path d="M86.4743 26.211C85.8053 26.211 85.2292 26.0623 84.7275 25.7836C84.2257 25.5048 83.8541 25.096 83.5753 24.5757C83.2966 24.0553 83.1665 23.4235 83.1665 22.7174C83.1665 21.9926 83.2966 21.3794 83.5753 20.8405C83.8541 20.3016 84.2257 19.8927 84.7275 19.5954C85.2292 19.2981 85.8053 19.1494 86.4743 19.1494C87.1433 19.1494 87.7379 19.2981 88.2211 19.5954C88.7043 19.8927 89.0945 20.3016 89.3547 20.8405C89.6148 21.3794 89.7635 22.0112 89.7635 22.7359C89.7635 23.4235 89.6334 24.0368 89.3732 24.5571C89.1131 25.0774 88.7414 25.4862 88.2397 25.8021C87.7565 26.0623 87.1619 26.211 86.4743 26.211ZM86.4743 24.7801C86.8088 24.7801 87.0875 24.6872 87.2919 24.4827C87.4964 24.2783 87.645 24.0182 87.7379 23.7023C87.8308 23.3863 87.868 23.0333 87.868 22.643C87.868 22.2899 87.8308 21.9369 87.7379 21.621C87.645 21.305 87.5149 21.0449 87.3105 20.8405C87.1061 20.6361 86.8274 20.5431 86.4743 20.5431C86.1398 20.5431 85.861 20.6361 85.6566 20.8219C85.4522 21.0077 85.3036 21.2679 85.1921 21.5838C85.0991 21.8997 85.0434 22.2528 85.0434 22.643C85.0434 22.9961 85.0806 23.3492 85.1735 23.6651C85.2664 23.9996 85.4151 24.2597 85.6195 24.4642C85.8239 24.6872 86.1212 24.7801 86.4743 24.7801Z" fill="white"/>
<path d="M92.7296 26.2153C92.2279 26.2153 91.8377 26.1596 91.5403 26.0295C91.243 25.8994 91.02 25.7508 90.8899 25.5649C90.7413 25.3605 90.6669 25.1561 90.6112 24.9145C90.5554 24.6729 90.5554 24.4314 90.5554 24.1898V16.292H92.4323V23.9482C92.4323 24.1898 92.4881 24.3942 92.5996 24.5614C92.7111 24.7101 92.9155 24.8216 93.2128 24.8402L93.5287 24.8588V26.0481C93.3986 26.0853 93.2685 26.1224 93.1199 26.1596C92.9898 26.1968 92.8597 26.2153 92.7296 26.2153Z" fill="white"/>
<path d="M96.9333 26.211C96.2643 26.211 95.6882 26.0623 95.1865 25.7836C94.6847 25.5048 94.3131 25.096 94.0343 24.5757C93.7556 24.0553 93.6255 23.4235 93.6255 22.7174C93.6255 21.9926 93.7556 21.3794 94.0343 20.8405C94.3131 20.3016 94.6847 19.8927 95.1865 19.5954C95.6882 19.2981 96.2643 19.1494 96.9333 19.1494C97.6023 19.1494 98.1969 19.2981 98.6801 19.5954C99.1632 19.8927 99.5535 20.3016 99.8136 20.8405C100.074 21.3794 100.222 22.0112 100.222 22.7359C100.222 23.4235 100.092 24.0368 99.8322 24.5571C99.5721 25.0774 99.2004 25.4862 98.6987 25.8021C98.2155 26.0623 97.6394 26.211 96.9333 26.211ZM96.9519 24.7801C97.2864 24.7801 97.5651 24.6872 97.7695 24.4827C97.9739 24.2783 98.1226 24.0182 98.2155 23.7023C98.3084 23.3863 98.3456 23.0333 98.3456 22.643C98.3456 22.2899 98.3084 21.9369 98.2155 21.621C98.1226 21.305 97.9925 21.0449 97.7881 20.8405C97.5837 20.6361 97.3049 20.5431 96.9519 20.5431C96.6174 20.5431 96.3386 20.6361 96.1342 20.8219C95.9298 21.0077 95.7811 21.2679 95.6696 21.5838C95.5767 21.8997 95.521 22.2528 95.521 22.643C95.521 22.9961 95.5581 23.3492 95.651 23.6651C95.744 23.9996 95.8926 24.2597 96.097 24.4642C96.3014 24.6872 96.5802 24.7801 96.9519 24.7801Z" fill="white"/>
<path d="M104.1 28.3484C102.892 28.3484 101.963 28.1997 101.331 27.8838C100.699 27.5679 100.383 27.1776 100.383 26.6759C100.383 26.4343 100.439 26.2485 100.569 26.0812C100.699 25.914 100.829 25.8025 100.997 25.7096C101.164 25.6167 101.312 25.5423 101.443 25.4866C101.573 25.4308 101.666 25.3937 101.703 25.3751C101.628 25.3379 101.535 25.2822 101.387 25.2078C101.257 25.1335 101.127 25.022 101.015 24.8919C100.904 24.7618 100.848 24.576 100.848 24.3716C100.848 24.13 100.959 23.907 101.201 23.684C101.424 23.4796 101.777 23.3309 102.242 23.2566C101.796 23.0336 101.461 22.7549 101.22 22.4018C100.978 22.0487 100.866 21.677 100.866 21.2868C100.866 20.8408 101.015 20.4506 101.294 20.1347C101.573 19.8187 101.963 19.5772 102.446 19.4099C102.929 19.2427 103.487 19.1683 104.1 19.1683C104.564 19.1683 104.955 19.2241 105.252 19.317C105.549 19.4099 105.828 19.54 106.088 19.7072C106.181 19.6701 106.33 19.6143 106.479 19.5586C106.646 19.5028 106.832 19.4285 107.017 19.3542C107.222 19.2798 107.408 19.2055 107.594 19.1312C107.779 19.0568 107.947 18.9825 108.095 18.9268L108.077 20.4134L106.906 20.5992C106.943 20.7107 106.98 20.8408 107.017 20.9895C107.036 21.1196 107.055 21.2311 107.055 21.324C107.055 21.7142 106.943 22.0859 106.702 22.439C106.479 22.7734 106.125 23.0522 105.661 23.2752C105.196 23.4796 104.639 23.5911 103.951 23.5911C103.877 23.5911 103.765 23.5911 103.617 23.5911C103.468 23.5911 103.357 23.5725 103.282 23.5725C103.022 23.5911 102.855 23.6097 102.743 23.6654C102.65 23.7212 102.595 23.7769 102.595 23.8513C102.595 23.9628 102.688 24.0185 102.892 24.0557C103.096 24.0928 103.394 24.1114 103.784 24.1486C103.933 24.1486 104.118 24.1672 104.379 24.1858C104.639 24.2043 104.899 24.2229 105.196 24.2415C106.033 24.2973 106.646 24.5017 107.073 24.8547C107.482 25.2078 107.686 25.6538 107.686 26.1927C107.686 26.8246 107.389 27.3635 106.776 27.7723C106.163 28.1811 105.308 28.3484 104.1 28.3484ZM104.397 27.2705C104.936 27.2705 105.308 27.1962 105.531 27.0661C105.754 26.936 105.865 26.7502 105.865 26.4901C105.865 26.2856 105.772 26.1184 105.605 25.9883C105.438 25.8582 105.178 25.7839 104.843 25.7653L103.282 25.6724C103.078 25.6538 102.892 25.691 102.743 25.7653C102.595 25.8396 102.465 25.9326 102.39 26.0626C102.297 26.1927 102.26 26.3228 102.26 26.4529C102.26 26.7316 102.427 26.9546 102.781 27.0847C103.134 27.1962 103.672 27.2705 104.397 27.2705ZM104.044 22.4761C104.416 22.4761 104.695 22.3832 104.918 22.1788C105.141 21.9744 105.252 21.7142 105.252 21.3611C105.252 21.0081 105.141 20.7107 104.918 20.5063C104.695 20.2833 104.397 20.1904 104.044 20.1904C103.673 20.1904 103.394 20.3019 103.152 20.5063C102.929 20.7293 102.818 21.0081 102.818 21.3611C102.818 21.6956 102.929 21.9744 103.152 22.1788C103.357 22.3646 103.654 22.4761 104.044 22.4761Z" fill="white"/>
<path d="M109.899 28.2569C109.435 28.2569 109.007 28.1826 108.617 28.0339V26.8074L109.305 26.826C109.602 26.8446 109.844 26.826 110.011 26.7888C110.197 26.7517 110.327 26.6773 110.42 26.603C110.513 26.5287 110.587 26.4543 110.624 26.3614C110.661 26.2871 110.698 26.2128 110.717 26.1756L110.847 25.8039L108.19 19.2627H110.104L111.739 23.704L113.393 19.2627H115.27L112.501 26.1198C112.259 26.6959 112.018 27.1419 111.739 27.4578C111.479 27.7737 111.182 27.9781 110.884 28.0896C110.587 28.2011 110.252 28.2569 109.899 28.2569Z" fill="white"/>
<path d="M34.8054 13.3327V3.79956H36.7195L41.0679 10.1178V3.79956H43.0005V13.3327H41.2723L36.7381 6.77285V13.3327H34.8054Z" fill="#174374"/>
<path d="M47.3192 13.4649C46.6502 13.4649 46.0555 13.3163 45.5352 13.0375C45.0149 12.7588 44.6246 12.35 44.3459 11.8296C44.0671 11.3093 43.9185 10.6961 43.9185 9.9899C43.9185 9.30233 44.0485 8.68909 44.3087 8.15018C44.5689 7.61128 44.9405 7.16528 45.4423 6.84937C45.9254 6.53346 46.5387 6.36621 47.2262 6.36621C47.9138 6.36621 48.5085 6.51488 48.973 6.8122C49.4376 7.10953 49.7907 7.51836 50.0323 8.03869C50.2739 8.55901 50.4039 9.15367 50.4039 9.84124V10.3616H45.8139C45.8139 10.7146 45.8697 11.012 45.9812 11.2721C46.0927 11.5323 46.2599 11.7181 46.4829 11.8668C46.7059 11.9969 46.9661 12.0712 47.2634 12.0712C47.5979 12.0712 47.8766 11.9969 48.1182 11.8668C48.3598 11.7181 48.5271 11.4951 48.6386 11.1792H50.3854C50.311 11.6624 50.1066 12.0712 49.8093 12.4243C49.4934 12.7588 49.1217 13.0375 48.6943 13.2048C48.2483 13.372 47.7837 13.4649 47.3192 13.4649ZM45.8139 9.228H48.6014C48.6014 8.94925 48.5456 8.70768 48.4527 8.48468C48.3412 8.26168 48.1926 8.07585 47.9881 7.94577C47.7837 7.81569 47.5236 7.74136 47.2262 7.74136C46.9289 7.74136 46.6873 7.81569 46.4643 7.96435C46.2599 8.11302 46.0927 8.29885 45.9812 8.52184C45.8511 8.72626 45.7953 8.96784 45.8139 9.228Z" fill="#174374"/>
<path d="M52.6494 13.3363L50.438 6.51636H52.1476L53.4484 10.7347H53.4856L54.7307 6.51636H56.1058L57.3695 10.7347H57.4252L58.6889 6.51636H60.4357L58.1871 13.3363H56.6819L55.4182 9.2109L54.1546 13.3363H52.6494Z" fill="#174374"/>
<path d="M64.1326 13.4109C63.5379 13.4109 63.0734 13.3366 62.7389 13.1879C62.4044 13.0392 62.1814 12.8162 62.0513 12.5375C61.9212 12.2587 61.8655 11.9428 61.8655 11.5712V7.85455H60.7505V6.51658H61.9212L62.4044 4.45386H63.7795V6.49799H65.3033V7.83597H63.7795L63.7981 11.4782C63.7981 11.6455 63.8167 11.7756 63.8539 11.8499C63.891 11.9242 63.9654 11.98 64.0583 12.0172C64.1512 12.0357 64.2627 12.0543 64.4114 12.0543H65.3219V13.2436C65.229 13.2808 65.0989 13.318 64.9131 13.3551C64.7273 13.3923 64.4671 13.4109 64.1326 13.4109Z" fill="#174374"/>
<path d="M68.9157 13.4688C68.2467 13.4688 67.6706 13.3201 67.1689 13.0414C66.6671 12.7626 66.2955 12.3538 66.0167 11.8335C65.738 11.3131 65.6079 10.6813 65.6079 9.97517C65.6079 9.25043 65.738 8.63719 66.0167 8.09828C66.2955 7.55937 66.6671 7.15055 67.1689 6.85322C67.6706 6.55589 68.2467 6.40723 68.9157 6.40723C69.5847 6.40723 70.1793 6.55589 70.6625 6.85322C71.1457 7.15055 71.5359 7.55937 71.7961 8.09828C72.0562 8.63719 72.2049 9.26901 72.2049 9.99375C72.2049 10.6813 72.0748 11.2946 71.8146 11.8149C71.5545 12.3352 71.1828 12.744 70.6811 13.06C70.2165 13.3201 69.6218 13.4688 68.9157 13.4688ZM68.9343 12.0379C69.2688 12.0379 69.5475 11.945 69.7519 11.7406C69.9563 11.5361 70.105 11.276 70.1979 10.9601C70.2908 10.6442 70.328 10.2911 70.328 9.90084C70.328 9.54776 70.2908 9.19468 70.1979 8.87877C70.105 8.56286 69.9749 8.3027 69.7705 8.09828C69.5661 7.89387 69.2874 7.80095 68.9343 7.80095C68.5998 7.80095 68.321 7.89387 68.1166 8.0797C67.9122 8.26553 67.7635 8.52569 67.652 8.8416C67.5591 9.15752 67.5034 9.51059 67.5034 9.90084C67.5034 10.2539 67.5405 10.607 67.6335 10.9229C67.7264 11.2574 67.875 11.5176 68.0795 11.722C68.2839 11.945 68.5626 12.0379 68.9343 12.0379Z" fill="#174374"/>
<path d="M72.9946 13.3337V6.51376H74.8901V7.48008C75.0016 7.31283 75.1317 7.14558 75.2989 6.99692C75.4662 6.84825 75.6892 6.71817 75.9493 6.60667C76.2095 6.51376 76.5254 6.45801 76.8785 6.45801C77.2873 6.45801 77.6776 6.53234 78.0492 6.69959C78.4209 6.86683 78.6996 7.127 78.9226 7.46149C79.1456 7.81457 79.2571 8.26056 79.2571 8.83664V13.3337H77.3245V9.07822C77.3245 8.70656 77.213 8.42781 76.99 8.24198C76.767 8.05615 76.5068 7.96324 76.1909 7.96324C75.9865 7.96324 75.7821 8.0004 75.5777 8.07473C75.3733 8.14907 75.2246 8.26056 75.0945 8.40923C74.9644 8.55789 74.9087 8.74372 74.9087 8.96672V13.3337H72.9946Z" fill="#174374"/>
<path d="M86.5583 13.4691C86.0752 13.4691 85.6106 13.4133 85.1646 13.2832C84.7186 13.1717 84.2912 12.9859 83.9196 12.7443C83.5479 12.5028 83.232 12.2054 82.9904 11.8524C82.7488 11.4993 82.6002 11.0719 82.563 10.6073H84.5514C84.6257 10.9046 84.7372 11.1462 84.923 11.332C85.1089 11.5364 85.3504 11.6851 85.6478 11.778C85.9451 11.8895 86.2796 11.9453 86.6698 11.9453C86.9672 11.9453 87.2645 11.9081 87.5247 11.8152C87.8034 11.7223 88.0264 11.5922 88.1937 11.4064C88.3609 11.2205 88.4538 10.9975 88.4538 10.7188C88.4538 10.3843 88.3423 10.1427 88.1007 9.97546C87.8592 9.80822 87.5432 9.67813 87.1344 9.58522L85.3504 9.19497C84.8487 9.08348 84.4027 8.93481 84.0311 8.71182C83.6594 8.48882 83.3621 8.19149 83.1576 7.83841C82.9532 7.48533 82.8603 7.03934 82.8603 6.5376C82.8603 5.94294 83.0276 5.42262 83.3435 4.99521C83.678 4.5678 84.124 4.2333 84.6815 4.0103C85.239 3.78731 85.8894 3.65723 86.5769 3.65723C87.376 3.65723 88.045 3.78731 88.5839 4.04747C89.1228 4.30763 89.5502 4.66071 89.8475 5.08812C90.1449 5.53411 90.2935 6.01727 90.2935 6.55618H88.3609C88.3237 6.22169 88.2308 5.96152 88.0636 5.75711C87.8963 5.5527 87.6733 5.40403 87.4132 5.3297C87.153 5.23679 86.8557 5.19962 86.5212 5.19962C85.9451 5.19962 85.5177 5.31112 85.2575 5.5527C84.9974 5.79428 84.8673 6.05444 84.8673 6.37035C84.8673 6.66768 84.9602 6.89068 85.1646 7.07651C85.369 7.26234 85.6849 7.39242 86.1309 7.48533L87.7848 7.83841C88.3981 7.94991 88.8998 8.15432 89.2901 8.3959C89.6803 8.65607 89.959 8.97198 90.1263 9.32506C90.2935 9.69672 90.3865 10.1055 90.3865 10.5515C90.3865 11.1276 90.2192 11.6294 89.9033 12.0753C89.5688 12.5213 89.1228 12.8558 88.5467 13.0974C87.9707 13.3576 87.3017 13.4691 86.5583 13.4691Z" fill="#174374"/>
<path d="M94.2309 13.4659C93.599 13.4659 93.0415 13.3172 92.5398 13.0385C92.0381 12.7597 91.6478 12.3509 91.3691 11.8306C91.0903 11.3102 90.9417 10.6784 90.9417 9.95369C90.9417 9.24753 91.0717 8.63429 91.3505 8.09538C91.6292 7.55647 92.0009 7.14765 92.5026 6.83173C93.0044 6.53441 93.5804 6.38574 94.2309 6.38574C94.8069 6.38574 95.2901 6.49724 95.7175 6.73882C96.1263 6.9804 96.4608 7.27773 96.7024 7.68656C96.944 8.0768 97.0741 8.52279 97.1112 9.00595H95.5131C95.4759 8.82012 95.4202 8.65287 95.3273 8.46704C95.2343 8.28121 95.0857 8.13255 94.9184 8.02105C94.7512 7.90955 94.5282 7.8538 94.268 7.8538C93.822 7.8538 93.4504 8.02105 93.1716 8.37413C92.8929 8.72721 92.7442 9.24753 92.7442 9.95369C92.7442 10.6227 92.8743 11.143 93.153 11.5332C93.4318 11.9235 93.8034 12.1093 94.2866 12.1093C94.5468 12.1093 94.7698 12.0536 94.937 11.9235C95.1043 11.7934 95.2529 11.6447 95.3458 11.4589C95.4387 11.2731 95.5131 11.1058 95.5317 10.9572H97.0926C97.0555 11.4217 96.9254 11.8492 96.6838 12.2394C96.4422 12.6111 96.1077 12.927 95.6989 13.15C95.2715 13.3544 94.7883 13.4659 94.2309 13.4659Z" fill="#174374"/>
<path d="M97.9204 13.3362V3.54297H99.8345V7.50116C99.946 7.33391 100.076 7.18525 100.243 7.03658C100.411 6.88792 100.615 6.75784 100.875 6.64634C101.135 6.53484 101.433 6.47909 101.786 6.47909C102.213 6.47909 102.622 6.57201 102.975 6.73925C103.328 6.9065 103.625 7.14808 103.83 7.48257C104.053 7.79849 104.164 8.18873 104.164 8.65331V13.3548H102.232V8.93205C102.232 8.61614 102.12 8.39314 101.897 8.2259C101.674 8.05865 101.414 7.98432 101.098 7.98432C100.894 7.98432 100.689 8.02148 100.503 8.09582C100.318 8.17015 100.15 8.28165 100.039 8.43031C99.9088 8.57897 99.853 8.76481 99.853 8.9878V13.3362H97.9204Z" fill="#174374"/>
<path d="M108.177 13.4688C107.508 13.4688 106.932 13.3201 106.431 13.0414C105.929 12.7626 105.557 12.3538 105.278 11.8335C105 11.3131 104.87 10.6813 104.87 9.97517C104.87 9.25043 105 8.63719 105.278 8.09828C105.557 7.55937 105.929 7.15055 106.431 6.85322C106.932 6.55589 107.508 6.40723 108.177 6.40723C108.846 6.40723 109.441 6.55589 109.924 6.85322C110.407 7.15055 110.798 7.55937 111.058 8.09828C111.318 8.63719 111.467 9.26901 111.467 9.99375C111.467 10.6813 111.337 11.2946 111.076 11.8149C110.816 12.3352 110.445 12.744 109.943 13.06C109.478 13.3201 108.884 13.4688 108.177 13.4688ZM108.196 12.0379C108.53 12.0379 108.809 11.945 109.014 11.7406C109.218 11.5361 109.367 11.276 109.46 10.9601C109.553 10.6442 109.59 10.2911 109.59 9.90084C109.59 9.54776 109.553 9.19468 109.46 8.87877C109.367 8.56286 109.237 8.3027 109.032 8.09828C108.828 7.89387 108.549 7.80095 108.196 7.80095C107.862 7.80095 107.583 7.89387 107.378 8.0797C107.174 8.26553 107.025 8.52569 106.914 8.8416C106.821 9.15752 106.765 9.51059 106.765 9.90084C106.765 10.2539 106.802 10.607 106.895 10.9229C106.988 11.2574 107.137 11.5176 107.341 11.722C107.546 11.945 107.824 12.0379 108.196 12.0379Z" fill="#174374"/>
<path d="M115.236 13.4688C114.567 13.4688 113.991 13.3201 113.489 13.0414C112.987 12.7626 112.616 12.3538 112.337 11.8335C112.058 11.3131 111.928 10.6813 111.928 9.97517C111.928 9.25043 112.058 8.63719 112.337 8.09828C112.616 7.55937 112.987 7.15055 113.489 6.85322C113.991 6.55589 114.567 6.40723 115.236 6.40723C115.905 6.40723 116.5 6.55589 116.983 6.85322C117.466 7.15055 117.856 7.55937 118.116 8.09828C118.377 8.63719 118.525 9.26901 118.525 9.99375C118.525 10.6813 118.395 11.2946 118.135 11.8149C117.875 12.3352 117.503 12.744 117.001 13.06C116.537 13.3201 115.942 13.4688 115.236 13.4688ZM115.255 12.0379C115.589 12.0379 115.868 11.945 116.072 11.7406C116.277 11.5361 116.425 11.276 116.518 10.9601C116.611 10.6442 116.648 10.2911 116.648 9.90084C116.648 9.54776 116.611 9.19468 116.518 8.87877C116.425 8.56286 116.295 8.3027 116.091 8.09828C115.886 7.89387 115.608 7.80095 115.255 7.80095C114.92 7.80095 114.641 7.89387 114.437 8.0797C114.233 8.26553 114.084 8.52569 113.972 8.8416C113.879 9.15752 113.824 9.51059 113.824 9.90084C113.824 10.2539 113.861 10.607 113.954 10.9229C114.047 11.2574 114.195 11.5176 114.4 11.722C114.604 11.945 114.883 12.0379 115.255 12.0379Z" fill="#174374"/>
<path d="M121.493 13.4477C120.991 13.4477 120.601 13.392 120.304 13.2619C120.006 13.1318 119.783 12.9832 119.653 12.7973C119.505 12.5929 119.43 12.3885 119.375 12.1469C119.319 11.9053 119.319 11.6638 119.319 11.4222V3.54297H121.196V11.1992C121.196 11.4408 121.251 11.6452 121.363 11.8124C121.474 11.9611 121.679 12.0726 121.976 12.0912L122.292 12.1098V13.2991C122.162 13.3362 122.032 13.3734 121.883 13.4106C121.772 13.4477 121.642 13.4477 121.493 13.4477Z" fill="#174374"/>
<path d="M37.5426 26.211C36.8737 26.211 36.2976 26.0623 35.7958 25.7836C35.2941 25.5048 34.9224 25.096 34.6437 24.5757C34.3649 24.0553 34.2349 23.4235 34.2349 22.7174C34.2349 21.9926 34.3649 21.3794 34.6437 20.8405C34.9224 20.3016 35.2941 19.8927 35.7958 19.5954C36.2976 19.2981 36.8737 19.1494 37.5426 19.1494C38.2116 19.1494 38.8063 19.2981 39.2895 19.5954C39.7726 19.8927 40.1629 20.3016 40.423 20.8405C40.6832 21.3794 40.8318 22.0112 40.8318 22.7359C40.8318 23.4235 40.7018 24.0368 40.4416 24.5571C40.1814 25.0774 39.8098 25.4862 39.308 25.8021C38.8435 26.0623 38.2488 26.211 37.5426 26.211ZM37.5612 24.7801C37.8957 24.7801 38.1745 24.6872 38.3789 24.4827C38.5833 24.2783 38.732 24.0182 38.8249 23.7023C38.9178 23.3863 38.955 23.0333 38.955 22.643C38.955 22.2899 38.9178 21.9369 38.8249 21.621C38.732 21.305 38.6019 21.0449 38.3975 20.8405C38.1931 20.6361 37.9143 20.5431 37.5612 20.5431C37.2267 20.5431 36.948 20.6361 36.7436 20.8219C36.5392 21.0077 36.3905 21.2679 36.279 21.5838C36.1861 21.8997 36.1303 22.2528 36.1303 22.643C36.1303 22.9961 36.1675 23.3492 36.2604 23.6651C36.3533 23.9996 36.502 24.2597 36.7064 24.4642C36.9108 24.6872 37.1896 24.7801 37.5612 24.7801Z" fill="#174374"/>
<path d="M42.2016 26.0817V20.5997H40.938V19.2617H42.2016V18.2768C42.2016 17.7193 42.3689 17.2919 42.6848 16.9946C43.0193 16.6972 43.4653 16.5486 44.0599 16.5486H45.6209L45.6395 17.8308H44.7289C44.4873 17.8308 44.3201 17.8866 44.2272 18.0166C44.1343 18.1467 44.0971 18.3326 44.0971 18.6113V19.2617H45.5652V20.5997H44.1343V26.0817H42.2016Z" fill="#174374"/>
<path d="M50.9102 26.0819V18.2585H48.0298V16.5488H55.6674V18.2585H52.8428V26.0819H50.9102Z" fill="#174374"/>
<path d="M58.3192 26.211C57.6502 26.211 57.0555 26.0624 56.5352 25.7836C56.0149 25.5049 55.6246 25.096 55.3459 24.5757C55.0671 24.0554 54.9185 23.4422 54.9185 22.736C54.9185 22.0484 55.0485 21.4352 55.3087 20.8963C55.5689 20.3574 55.9405 19.9114 56.4423 19.5955C56.9254 19.2796 57.5387 19.1123 58.2262 19.1123C58.9138 19.1123 59.5085 19.261 59.973 19.5583C60.4376 19.8556 60.7907 20.2645 61.0323 20.7848C61.2739 21.3051 61.4039 21.8998 61.4039 22.5873V23.1077H56.8139C56.8139 23.4607 56.8697 23.7581 56.9812 24.0182C57.0927 24.2784 57.2599 24.4642 57.4829 24.6129C57.7059 24.743 57.9661 24.8173 58.2634 24.8173C58.5979 24.8173 58.8766 24.743 59.1182 24.6129C59.3598 24.4642 59.5271 24.2412 59.6385 23.9253H61.3854C61.311 24.4085 61.1066 24.8173 60.8093 25.1704C60.4934 25.5049 60.1217 25.7836 59.6943 25.9509C59.2483 26.1181 58.8023 26.211 58.3192 26.211ZM56.8139 21.9741H59.6014C59.6014 21.6953 59.5456 21.4538 59.4527 21.2308C59.3412 21.0078 59.1926 20.8219 58.9881 20.6919C58.7837 20.5618 58.5236 20.4875 58.2262 20.4875C57.9289 20.4875 57.6873 20.5618 57.4643 20.7104C57.2599 20.8591 57.0927 21.0449 56.9812 21.2679C56.8697 21.4724 56.8139 21.7139 56.8139 21.9741Z" fill="#174374"/>
<path d="M65.2272 26.2159C64.5954 26.2159 64.0379 26.0672 63.5361 25.7885C63.0344 25.5097 62.6441 25.1009 62.3654 24.5806C62.0867 24.0602 61.938 23.4284 61.938 22.7037C61.938 21.9975 62.0681 21.3843 62.3468 20.8454C62.6256 20.3065 62.9972 19.8976 63.499 19.5817C64.0007 19.2844 64.5768 19.1357 65.2272 19.1357C65.8033 19.1357 66.2864 19.2472 66.7138 19.4888C67.1227 19.7304 67.4572 20.0277 67.6987 20.4366C67.9403 20.8268 68.0704 21.2728 68.1076 21.756H66.5094C66.4723 21.5701 66.4165 21.4029 66.3236 21.217C66.2307 21.0312 66.082 20.8825 65.9148 20.7711C65.7475 20.6596 65.5245 20.6038 65.2644 20.6038C64.8184 20.6038 64.4467 20.771 64.168 21.1241C63.8892 21.4772 63.7405 21.9975 63.7405 22.7037C63.7405 23.3727 63.8706 23.893 64.1494 24.2832C64.4281 24.6735 64.7998 24.8593 65.2829 24.8593C65.5431 24.8593 65.7661 24.8036 65.9333 24.6735C66.1006 24.5434 66.2493 24.3947 66.3422 24.2089C66.4351 24.0231 66.5094 23.8558 66.528 23.7072H68.089C68.0518 24.1717 67.9217 24.5992 67.6802 24.9894C67.4386 25.3611 67.1041 25.677 66.6952 25.9C66.2678 26.1044 65.7847 26.2159 65.2272 26.2159Z" fill="#174374"/>
<path d="M68.9146 26.0853V16.292H70.8286V20.2502C70.9401 20.0829 71.0702 19.9343 71.2374 19.7856C71.4047 19.6369 71.6091 19.5069 71.8693 19.3954C72.1294 19.2839 72.4267 19.2281 72.7798 19.2281C73.2072 19.2281 73.6161 19.321 73.9691 19.4883C74.3222 19.6555 74.6195 19.8971 74.824 20.2316C75.047 20.5475 75.1585 20.9378 75.1585 21.4023V26.1038H73.2258V21.6997C73.2258 21.3837 73.1143 21.1608 72.8913 20.9935C72.6683 20.8263 72.4082 20.7519 72.0923 20.7519C71.8878 20.7519 71.6834 20.7891 71.4976 20.8634C71.3118 20.9378 71.1445 21.0493 71.033 21.1979C70.9029 21.3466 70.8472 21.5324 70.8472 21.7554V26.1038H68.9146V26.0853Z" fill="#174374"/>
<path d="M76.1897 26.0815V19.2616H78.0852V20.2279C78.1967 20.0606 78.3267 19.8934 78.494 19.7447C78.6612 19.5961 78.8842 19.466 79.1444 19.3545C79.4046 19.2616 79.7205 19.2058 80.0736 19.2058C80.4824 19.2058 80.8726 19.2801 81.2443 19.4474C81.6159 19.6146 81.8947 19.8748 82.1177 20.2093C82.3407 20.5624 82.4522 21.0084 82.4522 21.5844V26.0815H80.5195V21.826C80.5195 21.4544 80.408 21.1756 80.1851 20.9898C79.9621 20.804 79.7019 20.711 79.386 20.711C79.1816 20.711 78.9772 20.7482 78.7727 20.8225C78.5683 20.8969 78.4197 21.0084 78.2896 21.157C78.1595 21.3057 78.1037 21.4915 78.1037 21.7145V26.0815H76.1897Z" fill="#174374"/>
<path d="M86.4743 26.211C85.8053 26.211 85.2292 26.0623 84.7275 25.7836C84.2257 25.5048 83.8541 25.096 83.5753 24.5757C83.2966 24.0553 83.1665 23.4235 83.1665 22.7174C83.1665 21.9926 83.2966 21.3794 83.5753 20.8405C83.8541 20.3016 84.2257 19.8927 84.7275 19.5954C85.2292 19.2981 85.8053 19.1494 86.4743 19.1494C87.1433 19.1494 87.7379 19.2981 88.2211 19.5954C88.7043 19.8927 89.0945 20.3016 89.3547 20.8405C89.6148 21.3794 89.7635 22.0112 89.7635 22.7359C89.7635 23.4235 89.6334 24.0368 89.3732 24.5571C89.1131 25.0774 88.7414 25.4862 88.2397 25.8021C87.7565 26.0623 87.1619 26.211 86.4743 26.211ZM86.4743 24.7801C86.8088 24.7801 87.0875 24.6872 87.2919 24.4827C87.4964 24.2783 87.645 24.0182 87.7379 23.7023C87.8308 23.3863 87.868 23.0333 87.868 22.643C87.868 22.2899 87.8308 21.9369 87.7379 21.621C87.645 21.305 87.5149 21.0449 87.3105 20.8405C87.1061 20.6361 86.8274 20.5431 86.4743 20.5431C86.1398 20.5431 85.861 20.6361 85.6566 20.8219C85.4522 21.0077 85.3036 21.2679 85.1921 21.5838C85.0991 21.8997 85.0434 22.2528 85.0434 22.643C85.0434 22.9961 85.0806 23.3492 85.1735 23.6651C85.2664 23.9996 85.4151 24.2597 85.6195 24.4642C85.8239 24.6872 86.1212 24.7801 86.4743 24.7801Z" fill="#174374"/>
<path d="M92.7296 26.2153C92.2279 26.2153 91.8377 26.1596 91.5403 26.0295C91.243 25.8994 91.02 25.7508 90.8899 25.5649C90.7413 25.3605 90.6669 25.1561 90.6112 24.9145C90.5554 24.6729 90.5554 24.4314 90.5554 24.1898V16.292H92.4323V23.9482C92.4323 24.1898 92.4881 24.3942 92.5996 24.5614C92.7111 24.7101 92.9155 24.8216 93.2128 24.8402L93.5287 24.8588V26.0481C93.3986 26.0853 93.2685 26.1224 93.1199 26.1596C92.9898 26.1968 92.8597 26.2153 92.7296 26.2153Z" fill="#174374"/>
<path d="M96.9333 26.211C96.2643 26.211 95.6882 26.0623 95.1865 25.7836C94.6847 25.5048 94.3131 25.096 94.0343 24.5757C93.7556 24.0553 93.6255 23.4235 93.6255 22.7174C93.6255 21.9926 93.7556 21.3794 94.0343 20.8405C94.3131 20.3016 94.6847 19.8927 95.1865 19.5954C95.6882 19.2981 96.2643 19.1494 96.9333 19.1494C97.6023 19.1494 98.1969 19.2981 98.6801 19.5954C99.1632 19.8927 99.5535 20.3016 99.8136 20.8405C100.074 21.3794 100.222 22.0112 100.222 22.7359C100.222 23.4235 100.092 24.0368 99.8322 24.5571C99.5721 25.0774 99.2004 25.4862 98.6987 25.8021C98.2155 26.0623 97.6394 26.211 96.9333 26.211ZM96.9519 24.7801C97.2864 24.7801 97.5651 24.6872 97.7695 24.4827C97.9739 24.2783 98.1226 24.0182 98.2155 23.7023C98.3084 23.3863 98.3456 23.0333 98.3456 22.643C98.3456 22.2899 98.3084 21.9369 98.2155 21.621C98.1226 21.305 97.9925 21.0449 97.7881 20.8405C97.5837 20.6361 97.3049 20.5431 96.9519 20.5431C96.6174 20.5431 96.3386 20.6361 96.1342 20.8219C95.9298 21.0077 95.7811 21.2679 95.6696 21.5838C95.5767 21.8997 95.521 22.2528 95.521 22.643C95.521 22.9961 95.5581 23.3492 95.651 23.6651C95.744 23.9996 95.8926 24.2597 96.097 24.4642C96.3014 24.6872 96.5802 24.7801 96.9519 24.7801Z" fill="#174374"/>
<path d="M104.1 28.3484C102.892 28.3484 101.963 28.1997 101.331 27.8838C100.699 27.5679 100.383 27.1776 100.383 26.6759C100.383 26.4343 100.439 26.2485 100.569 26.0812C100.699 25.914 100.829 25.8025 100.997 25.7096C101.164 25.6167 101.312 25.5423 101.443 25.4866C101.573 25.4308 101.666 25.3937 101.703 25.3751C101.628 25.3379 101.535 25.2822 101.387 25.2078C101.257 25.1335 101.127 25.022 101.015 24.8919C100.904 24.7618 100.848 24.576 100.848 24.3716C100.848 24.13 100.959 23.907 101.201 23.684C101.424 23.4796 101.777 23.3309 102.242 23.2566C101.796 23.0336 101.461 22.7549 101.22 22.4018C100.978 22.0487 100.866 21.677 100.866 21.2868C100.866 20.8408 101.015 20.4506 101.294 20.1347C101.573 19.8187 101.963 19.5772 102.446 19.4099C102.929 19.2427 103.487 19.1683 104.1 19.1683C104.564 19.1683 104.955 19.2241 105.252 19.317C105.549 19.4099 105.828 19.54 106.088 19.7072C106.181 19.6701 106.33 19.6143 106.479 19.5586C106.646 19.5028 106.832 19.4285 107.017 19.3542C107.222 19.2798 107.408 19.2055 107.594 19.1312C107.779 19.0568 107.947 18.9825 108.095 18.9268L108.077 20.4134L106.906 20.5992C106.943 20.7107 106.98 20.8408 107.017 20.9895C107.036 21.1196 107.055 21.2311 107.055 21.324C107.055 21.7142 106.943 22.0859 106.702 22.439C106.479 22.7734 106.125 23.0522 105.661 23.2752C105.196 23.4796 104.639 23.5911 103.951 23.5911C103.877 23.5911 103.765 23.5911 103.617 23.5911C103.468 23.5911 103.357 23.5725 103.282 23.5725C103.022 23.5911 102.855 23.6097 102.743 23.6654C102.65 23.7212 102.595 23.7769 102.595 23.8513C102.595 23.9628 102.688 24.0185 102.892 24.0557C103.096 24.0928 103.394 24.1114 103.784 24.1486C103.933 24.1486 104.118 24.1672 104.379 24.1858C104.639 24.2043 104.899 24.2229 105.196 24.2415C106.033 24.2973 106.646 24.5017 107.073 24.8547C107.482 25.2078 107.686 25.6538 107.686 26.1927C107.686 26.8246 107.389 27.3635 106.776 27.7723C106.163 28.1811 105.308 28.3484 104.1 28.3484ZM104.397 27.2705C104.936 27.2705 105.308 27.1962 105.531 27.0661C105.754 26.936 105.865 26.7502 105.865 26.4901C105.865 26.2856 105.772 26.1184 105.605 25.9883C105.438 25.8582 105.178 25.7839 104.843 25.7653L103.282 25.6724C103.078 25.6538 102.892 25.691 102.743 25.7653C102.595 25.8396 102.465 25.9326 102.39 26.0626C102.297 26.1927 102.26 26.3228 102.26 26.4529C102.26 26.7316 102.427 26.9546 102.781 27.0847C103.134 27.1962 103.672 27.2705 104.397 27.2705ZM104.044 22.4761C104.416 22.4761 104.695 22.3832 104.918 22.1788C105.141 21.9744 105.252 21.7142 105.252 21.3611C105.252 21.0081 105.141 20.7107 104.918 20.5063C104.695 20.2833 104.397 20.1904 104.044 20.1904C103.673 20.1904 103.394 20.3019 103.152 20.5063C102.929 20.7293 102.818 21.0081 102.818 21.3611C102.818 21.6956 102.929 21.9744 103.152 22.1788C103.357 22.3646 103.654 22.4761 104.044 22.4761Z" fill="#174374"/>
<path d="M109.899 28.2569C109.435 28.2569 109.007 28.1826 108.617 28.0339V26.8074L109.305 26.826C109.602 26.8446 109.844 26.826 110.011 26.7888C110.197 26.7517 110.327 26.6773 110.42 26.603C110.513 26.5287 110.587 26.4543 110.624 26.3614C110.661 26.2871 110.698 26.2128 110.717 26.1756L110.847 25.8039L108.19 19.2627H110.104L111.739 23.704L113.393 19.2627H115.27L112.501 26.1198C112.259 26.6959 112.018 27.1419 111.739 27.4578C111.479 27.7737 111.182 27.9781 110.884 28.0896C110.587 28.2011 110.252 28.2569 109.899 28.2569Z" fill="#174374"/>
<path d="M20.7028 29.2653H17.841V17.5023C17.841 13.6742 14.9607 10.5522 11.4299 10.5522H3.45776V7.69043H11.4299C16.5402 7.69043 20.7028 12.0946 20.7028 17.5023V29.2653Z" fill="#2B78BD"/>
<path d="M23.572 0.657089L14.1555 8.94336L16.046 11.0917L25.4625 2.80543L23.572 0.657089Z" fill="#2B78BD"/>
<path d="M22.7833 19.9186C22.7833 24.8431 18.7879 28.8385 13.8634 28.8385H12.8971C7.97259 28.8385 3.97724 24.8431 3.97724 19.9186V3.15671H17.4314V0.294922H1.13403V19.9186C1.13403 26.4227 6.41162 31.7003 12.9157 31.7003H13.882C20.3861 31.7003 25.6636 26.4227 25.6636 19.9186V8.4343H22.8019V19.9186H22.7833Z" fill="#1A4072"/>
<path d="M22.7803 3.15671V7.41223H25.6607V0.294922H18.4504V3.15671H22.7803Z" fill="#2B78BD"/>
</svg>
